<svg width="80" height="80" viewBox="0 0 80 80" fill="none" xmlns="http://www.w3.org/2000/svg">
<rect width="80" height="80" fill="white" fill-opacity="0.01" style="mix-blend-mode:multiply"/>
<path d="M77.5 78.4H2.50001C2.00251 78.4 1.60001 77.9975 1.60001 77.5V2.49998C1.60001 2.00248 2.00251 1.59998 2.50001 1.59998H77.5C77.9975 1.59998 78.4 2.00248 78.4 2.49998V77.5C78.4 77.9975 77.9975 78.4 77.5 78.4ZM3.40001 76.6H76.6V3.39998H3.40001V76.6ZM72.5 73.4H7.50001C7.00251 73.4 6.60001 72.9975 6.60001 72.5V7.49998C6.60001 7.00248 7.00251 6.59998 7.50001 6.59998H72.5C72.9975 6.59998 73.4 7.00248 73.4 7.49998V72.5C73.4 72.9975 72.9975 73.4 72.5 73.4ZM8.40001 71.6H71.6V8.39998H8.40001V71.6ZM37.5 58.4C35.9375 58.4 34.6175 57.3375 34.22 55.9H20V54.1H34.22C34.615 52.6625 35.935 51.6 37.5 51.6C39.065 51.6 40.3825 52.6625 40.78 54.1H60V55.9025H40.78C40.3825 57.34 39.0625 58.4 37.5 58.4ZM37.5 53.4C36.6175 53.4 35.9 54.1175 35.9 55C35.9 55.8825 36.6175 56.6 37.5 56.6C38.3825 56.6 39.1 55.8825 39.1 55C39.1 54.1175 38.3825 53.4 37.5 53.4ZM27.5 48.4C25.9375 48.4 24.6175 47.3375 24.22 45.9H20V44.1H24.22C24.615 42.6625 25.935 41.6 27.5 41.6C29.065 41.6 30.3825 42.66 30.78 44.1H60V45.9025H30.78C30.3825 47.34 29.0625 48.4 27.5 48.4ZM27.5 43.4C26.6175 43.4 25.9 44.1175 25.9 45C25.9 45.8825 26.6175 46.6 27.5 46.6C28.3825 46.6 29.1 45.8825 29.1 45C29.1 44.1175 28.3825 43.4 27.5 43.4ZM52.5 38.4C50.9375 38.4 49.6175 37.34 49.22 35.9H20V34.1H49.22C49.615 32.66 50.9375 31.6 52.5 31.6C54.0625 31.6 55.3825 32.66 55.78 34.1H60V35.9H55.78C55.3825 37.34 54.0625 38.4 52.5 38.4ZM52.5 33.4C51.6175 33.4 50.9 34.1175 50.9 35C50.9 35.8825 51.6175 36.6 52.5 36.6C53.3825 36.6 54.1 35.8825 54.1 35C54.1 34.1175 53.3825 33.4 52.5 33.4ZM45 28.4C43.4375 28.4 42.1175 27.34 41.72 25.9H20V24.1H41.72C42.115 22.66 43.4375 21.6 45 21.6C46.5625 21.6 47.8825 22.66 48.28 24.1H60V25.9H48.28C47.8825 27.34 46.5625 28.4 45 28.4ZM45 23.4C44.1175 23.4 43.4 24.1175 43.4 25C43.4 25.8825 44.1175 26.6 45 26.6C45.8825 26.6 46.6 25.8825 46.6 25C46.6 24.1175 45.8825 23.4 45 23.4Z" fill="#0F62FE"/>
</svg>
