<svg width="80" height="80" viewBox="0 0 80 80" fill="none" xmlns="http://www.w3.org/2000/svg">
<rect width="80" height="80" fill="white" fill-opacity="0.01" style="mix-blend-mode:multiply"/>
<path d="M30 75.9C26.325 75.9 22.87 73.985 20.8675 70.8725C14.2575 70.6 9.09998 65.265 9.09998 58.75C9.09998 56.5025 9.72998 54.3225 10.9325 52.39C6.69498 49.7175 4.09998 45.0525 4.09998 40C4.09998 34.9475 6.69498 30.285 10.9325 27.6075C9.73248 25.6775 9.09998 23.5 9.09998 21.25C9.09998 14.675 14.3525 9.30248 20.88 9.10498C22.8875 6.00498 26.335 4.09998 30 4.09998C36.01 4.09998 40.9 8.98998 40.9 15V26.6H62.5C64.76 26.6 66.6 24.76 66.6 22.5V18.28C65.1625 17.885 64.1 16.565 64.1 15C64.1 13.125 65.625 11.6 67.5 11.6C69.375 11.6 70.9 13.125 70.9 15C70.9 16.5625 69.8375 17.8825 68.4 18.28V22.5C68.4 25.7525 65.7525 28.4 62.5 28.4H40.9V34.1H69.2225C69.6175 32.66 70.94 31.6 72.5025 31.6C74.3775 31.6 75.9025 33.125 75.9025 35C75.9025 36.875 74.3775 38.4 72.5025 38.4C70.94 38.4 69.62 37.34 69.2225 35.9H40.9V44.1H69.2225C69.6175 42.6625 70.94 41.6 72.5025 41.6C74.3775 41.6 75.9025 43.125 75.9025 45C75.9025 46.875 74.3775 48.4 72.5025 48.4C70.94 48.4 69.62 47.3375 69.2225 45.9H40.9V51.5975H62.5C65.755 51.5975 68.4 54.245 68.4 57.4975V61.7175C69.8375 62.1125 70.9 63.435 70.9 64.9975C70.9 66.8725 69.375 68.3975 67.5 68.3975C65.625 68.3975 64.1 66.8725 64.1 64.9975C64.1 63.435 65.1625 62.115 66.6 61.7175V57.5C66.6 55.24 64.7625 53.4 62.5 53.4H40.9V65C40.9 71.01 36.01 75.9 30 75.9ZM21.8025 69.07L22.16 69.535C23.815 72.3925 26.7475 74.1 30 74.1C35.0175 74.1 39.1 70.0175 39.1 65V15C39.1 9.98248 35.0175 5.89998 30 5.89998C26.7475 5.89998 23.815 7.60748 22.1575 10.465L21.8675 10.9125C21.2325 12.1725 20.9 13.5775 20.9 15C20.9 16.6 21.32 18.1725 22.1175 19.55L20.56 20.45C19.605 18.8025 19.1 16.915 19.1 15C19.1 13.6325 19.3575 12.28 19.85 11.0175C14.7525 11.735 10.9 16.05 10.9 21.25C10.9 23.44 11.6075 25.555 12.9425 27.365L13.5575 28.1975L12.6475 28.69C8.48498 30.9425 5.89998 35.275 5.89998 40C5.89998 44.4625 8.20498 48.575 11.9675 50.9125C14.2825 48.17 17.6525 46.6 21.25 46.6V48.4025C18.235 48.4025 15.41 49.695 13.4375 51.9625L12.9425 52.6375C11.6075 54.445 10.9 56.56 10.9 58.75C10.9 64.4575 15.5425 69.1 21.25 69.1L21.8025 69.07ZM67.5 63.4C66.6175 63.4 65.9 64.1175 65.9 65C65.9 65.8825 66.6175 66.6 67.5 66.6C68.3825 66.6 69.1 65.8825 69.1 65C69.1 64.1175 68.3825 63.4 67.5 63.4ZM72.5 43.4C71.6175 43.4 70.9 44.1175 70.9 45C70.9 45.8825 71.6175 46.6 72.5 46.6C73.3825 46.6 74.1 45.8825 74.1 45C74.1 44.1175 73.3825 43.4 72.5 43.4ZM72.5 33.4C71.6175 33.4 70.9 34.1175 70.9 35C70.9 35.8825 71.6175 36.6 72.5 36.6C73.3825 36.6 74.1 35.8825 74.1 35C74.1 34.1175 73.3825 33.4 72.5 33.4ZM67.5 13.4C66.6175 13.4 65.9 14.1175 65.9 15C65.9 15.8825 66.6175 16.6 67.5 16.6C68.3825 16.6 69.1 15.8825 69.1 15C69.1 14.1175 68.3825 13.4 67.5 13.4ZM30 70.9V69.1C32.26 69.1 34.1 67.2625 34.1 65H35.9C35.9 68.255 33.2525 70.9 30 70.9ZM22.5 65.9C18.5575 65.9 15.35 62.6925 15.35 58.75H17.15C17.15 61.7 19.55 64.1 22.5 64.1V65.9ZM30 60.9C26.7475 60.9 24.1 58.2525 24.1 55C24.1 51.7475 26.7475 49.1 30 49.1V50.9025C27.74 50.9025 25.9 52.74 25.9 55.0025C25.9 57.265 27.74 59.1025 30 59.1025V60.9ZM15.83 41.6675C14.715 40.5525 14.1 39.0725 14.1 37.5C14.1 34.025 16.525 31.6 20 31.6C21.6025 31.6 23.045 32.195 24.1725 33.3225L22.8975 34.595C22.1175 33.8125 21.115 33.4 20 33.4C17.51 33.4 15.9 35.01 15.9 37.5C15.9 38.5925 16.3275 39.62 17.1 40.395L15.83 41.6675ZM30 32.15V30.35C32.26 30.35 34.1 28.51 34.1 26.25C34.1 23.99 32.26 22.15 30 22.15V20.35C33.2525 20.35 35.9 22.9975 35.9 26.25C35.9 29.5025 33.2525 32.15 30 32.15ZM35.9 15H34.1C34.1 12.74 32.26 10.9 30 10.9C27.74 10.9 25.9 12.74 25.9 15H24.1C24.1 11.7475 26.7475 9.09998 30 9.09998C33.2525 9.09998 35.9 11.7475 35.9 15Z" fill="#0F62FE"/>
</svg>
