<svg width="80" height="80" viewBox="0 0 80 80" fill="none" xmlns="http://www.w3.org/2000/svg">
<rect width="80" height="80" fill="white" fill-opacity="0.01" style="mix-blend-mode:multiply"/>
<path d="M75 70.9H5.00001C4.50251 70.9 4.10001 70.4975 4.10001 70V9.99998C4.10001 9.50248 4.50251 9.09998 5.00001 9.09998H75C75.4975 9.09998 75.9 9.50248 75.9 9.99998V70C75.9 70.4975 75.4975 70.9 75 70.9ZM5.90001 69.1H74.1V55.9H5.90001V69.1ZM5.90001 54.1H74.1V40.9H5.90001V54.1ZM5.90001 39.1H74.1V25.9H5.90001V39.1ZM5.90001 24.1H74.1V10.9H5.90001V24.1ZM67.5 65.9C65.625 65.9 64.1 64.375 64.1 62.5C64.1 60.625 65.625 59.1 67.5 59.1C69.375 59.1 70.9 60.625 70.9 62.5C70.9 64.375 69.375 65.9 67.5 65.9ZM67.5 60.9C66.6175 60.9 65.9 61.6175 65.9 62.5C65.9 63.3825 66.6175 64.1 67.5 64.1C68.3825 64.1 69.1 63.3825 69.1 62.5C69.1 61.6175 68.3825 60.9 67.5 60.9ZM67.5 50.9C65.625 50.9 64.1 49.375 64.1 47.5C64.1 45.625 65.625 44.1 67.5 44.1C69.375 44.1 70.9 45.625 70.9 47.5C70.9 49.375 69.375 50.9 67.5 50.9ZM67.5 45.9C66.6175 45.9 65.9 46.6175 65.9 47.5C65.9 48.3825 66.6175 49.1 67.5 49.1C68.3825 49.1 69.1 48.3825 69.1 47.5C69.1 46.6175 68.3825 45.9 67.5 45.9ZM67.5 35.9C65.625 35.9 64.1 34.375 64.1 32.5C64.1 30.625 65.625 29.1 67.5 29.1C69.375 29.1 70.9 30.625 70.9 32.5C70.9 34.375 69.375 35.9 67.5 35.9ZM67.5 30.9C66.6175 30.9 65.9 31.6175 65.9 32.5C65.9 33.3825 66.6175 34.1 67.5 34.1C68.3825 34.1 69.1 33.3825 69.1 32.5C69.1 31.6175 68.3825 30.9 67.5 30.9ZM67.5 20.9C65.625 20.9 64.1 19.375 64.1 17.5C64.1 15.625 65.625 14.1 67.5 14.1C69.375 14.1 70.9 15.625 70.9 17.5C70.9 19.375 69.375 20.9 67.5 20.9ZM67.5 15.9C66.6175 15.9 65.9 16.6175 65.9 17.5C65.9 18.3825 66.6175 19.1 67.5 19.1C68.3825 19.1 69.1 18.3825 69.1 17.5C69.1 16.6175 68.3825 15.9 67.5 15.9Z" fill="#0F62FE"/>
</svg>
