<svg width="80" height="80" viewBox="0 0 80 80" fill="none" xmlns="http://www.w3.org/2000/svg">
<rect width="80" height="80" fill="white" fill-opacity="0.01" style="mix-blend-mode:multiply"/>
<path d="M40 78.4C18.825 78.4 1.59998 61.175 1.59998 40C1.59998 26.365 8.74248 14.37 19.4825 7.55248L16.7275 2.96248L18.27 2.03748L21.025 6.62498C26.625 3.42748 33.105 1.59998 40 1.59998C53.21 1.59998 64.8825 8.30498 71.7975 18.49L74.515 16.7425L75.4875 18.255L72.7725 20C76.3425 25.83 78.4025 32.6775 78.4025 39.9975C78.4 61.175 61.175 78.4 40 78.4ZM40.9 43.28V76.59C60.6675 76.11 76.6 59.88 76.6 40C76.6 33.0375 74.6475 26.5225 71.2575 20.9775L43.245 38.985C43.345 39.305 43.4 39.6475 43.4 40C43.4 41.5625 42.34 42.8825 40.9 43.28ZM20.41 9.09748C10.1925 15.5975 3.39998 27.02 3.39998 40C3.39998 59.88 19.3325 76.11 39.1 76.59V43.28C37.66 42.885 36.6 41.565 36.6 40C36.6 39.7325 36.63 39.47 36.69 39.22L12.0675 25.79L12.93 24.21L37.5225 37.625L20.41 9.09748ZM40 38.4C39.1175 38.4 38.4 39.1175 38.4 40C38.4 40.8825 39.1175 41.6 40 41.6C40.8825 41.6 41.6 40.8825 41.6 40C41.6 39.1175 40.8825 38.4 40 38.4ZM40 36.6C40.8725 36.6 41.6675 36.93 42.27 37.47L70.28 19.4625C63.69 9.77498 52.575 3.39998 40 3.39998C33.44 3.39998 27.28 5.13498 21.95 8.16748L39.085 36.725C39.375 36.6425 39.6825 36.6 40 36.6Z" fill="#0F62FE"/>
</svg>
