<svg width="80" height="80" viewBox="0 0 80 80" fill="none" xmlns="http://www.w3.org/2000/svg">
<rect width="80" height="80" fill="url(#paint0_linear_274_157)"/>
<path d="M72.5 8.75004C72.5 9.44004 71.94 10 71.25 10C70.56 10 70 9.44004 70 8.75004C70 8.06004 70.56 7.50004 71.25 7.50004C71.94 7.50004 72.5 8.06004 72.5 8.75004ZM66.25 7.50004C65.56 7.50004 65 8.06004 65 8.75004C65 9.44004 65.56 10 66.25 10C66.94 10 67.5 9.44004 67.5 8.75004C67.5 8.06004 66.94 7.50004 66.25 7.50004ZM61.25 7.50004C60.56 7.50004 60 8.06004 60 8.75004C60 9.44004 60.56 10 61.25 10C61.94 10 62.5 9.44004 62.5 8.75004C62.5 8.06004 61.94 7.50004 61.25 7.50004ZM77.5 75.9H2.50001C2.00251 75.9 1.60001 75.4975 1.60001 75V5.00004C1.60001 4.50254 2.00251 4.10004 2.50001 4.10004H77.5C77.9975 4.10004 78.4 4.50254 78.4 5.00004V75C78.4 75.4975 77.9975 75.9 77.5 75.9ZM3.40001 74.1H76.6V13.4H3.40001V74.1ZM3.40001 11.6H76.6V5.90004H3.40001V11.6ZM43.75 63.4H36.25C35.7525 63.4 35.35 62.9975 35.35 62.5V57.6875C34.38 57.395 33.4425 57.005 32.5475 56.5275L29.145 59.93C28.9775 60.0975 28.7475 60.1925 28.51 60.1925C28.27 60.1925 28.0425 60.0975 27.875 59.93L22.5725 54.625C22.22 54.2725 22.22 53.7025 22.5725 53.35L25.9725 49.9525C25.4975 49.06 25.11 48.12 24.8125 47.15H20C19.5025 47.15 19.1 46.7475 19.1 46.25V38.75C19.1 38.2525 19.5025 37.85 20 37.85H24.81C25.1075 36.8775 25.495 35.94 25.97 35.045L22.57 31.645C22.2175 31.2925 22.2175 30.725 22.57 30.3725L27.8725 25.0675C28.21 24.7275 28.8075 24.7275 29.145 25.0675L32.5475 28.4675C33.44 27.9925 34.3775 27.605 35.35 27.3075V22.5C35.35 22.0025 35.7525 21.6 36.25 21.6H43.75C44.2475 21.6 44.65 22.0025 44.65 22.5V27.31C45.62 27.6075 46.56 27.995 47.4525 28.47L50.85 25.07C51.1875 24.73 51.7825 24.73 52.125 25.07L57.43 30.375C57.5975 30.5425 57.6925 30.7725 57.6925 31.01C57.6925 31.2475 57.5975 31.4775 57.43 31.645L54.0275 35.045C54.5025 35.935 54.8925 36.875 55.19 37.85H60C60.4975 37.85 60.9 38.2525 60.9 38.75V46.25C60.9 46.7475 60.4975 47.15 60 47.15H55.19C54.8925 48.1225 54.505 49.06 54.0275 49.9525L57.43 53.35C57.5975 53.5175 57.6925 53.7475 57.6925 53.9875C57.6925 54.2275 57.5975 54.4575 57.43 54.625L52.125 59.93C51.9575 60.0975 51.7275 60.1925 51.4875 60.1925C51.2475 60.1925 51.0175 60.0975 50.85 59.93L47.4525 56.5275C46.555 57.0025 45.6175 57.395 44.65 57.6875V62.5C44.65 62.9975 44.2475 63.4 43.75 63.4ZM37.15 61.6H42.85V57.0075C42.85 56.5975 43.1275 56.2375 43.5275 56.135C44.7975 55.81 46.015 55.305 47.1525 54.635C47.505 54.4225 47.955 54.48 48.2475 54.7725L51.4925 58.0225L55.525 53.99L52.275 50.745C51.985 50.455 51.9275 50.0025 52.1375 49.65C52.805 48.525 53.31 47.305 53.64 46.0275C53.7425 45.63 54.1025 45.35 54.5125 45.35H59.1025V39.65H54.5125C54.1025 39.65 53.7425 39.3725 53.64 38.975C53.31 37.695 52.805 36.475 52.1375 35.3525C51.9275 34.9975 51.9825 34.5475 52.275 34.2575L55.525 31.01L51.4925 26.98L48.2475 30.225C47.9575 30.5125 47.505 30.5725 47.1525 30.365C46.0225 29.6975 44.805 29.195 43.5275 28.865C43.13 28.7625 42.85 28.4025 42.85 27.9925V23.4H37.15V27.9925C37.15 28.4025 36.8725 28.7625 36.475 28.865C35.1975 29.195 33.9775 29.7 32.85 30.365C32.495 30.575 32.0475 30.5175 31.755 30.225L28.5075 26.98L24.4775 31.01L27.7225 34.2575C28.0125 34.5475 28.07 34.9975 27.8625 35.3525C27.1975 36.48 26.6925 37.6975 26.3625 38.9775C26.26 39.375 25.9 39.6525 25.49 39.6525H20.9V45.3525H25.4925C25.9025 45.3525 26.2625 45.63 26.365 46.03C26.695 47.3075 27.1975 48.525 27.865 49.655C28.0725 50.0075 28.0175 50.4575 27.725 50.75L24.48 53.995L28.51 58.0275L31.7575 54.7775C32.0475 54.4875 32.495 54.4275 32.8525 54.64C33.985 55.31 35.205 55.815 36.475 56.14C36.8725 56.2425 37.1525 56.6025 37.1525 57.0125L37.15 61.6ZM40 52.15C34.68 52.15 30.35 47.82 30.35 42.5C30.35 37.18 34.6775 32.85 40 32.85C45.32 32.85 49.65 37.1775 49.65 42.5C49.65 47.82 45.32 52.15 40 52.15ZM40 34.65C35.6725 34.65 32.15 38.1725 32.15 42.5C32.15 46.8275 35.6725 50.35 40 50.35C44.3275 50.35 47.85 46.83 47.85 42.5C47.85 38.17 44.3275 34.65 40 34.65Z" fill="#0F62FE"/>
<defs>
<linearGradient id="paint0_linear_274_157" x1="-5.96046e-07" y1="40" x2="80" y2="40" gradientUnits="userSpaceOnUse">
<stop stop-color="white" stop-opacity="0"/>
<stop offset="1" stop-color="white"/>
</linearGradient>
</defs>
</svg>
