<svg width="80" height="80" viewBox="0 0 80 80" fill="none" xmlns="http://www.w3.org/2000/svg">
<rect width="80" height="80" fill="white" fill-opacity="0.01" style="mix-blend-mode:multiply"/>
<path d="M67.5 78.4H12.5C12.0025 78.4 11.6 77.9975 11.6 77.5V2.50004C11.6 2.00254 12.0025 1.60004 12.5 1.60004H67.5C67.9975 1.60004 68.4 2.00254 68.4 2.50004V77.5C68.4 77.9975 67.9975 78.4 67.5 78.4ZM13.4 76.6H66.6V65.9H13.4V76.6ZM13.4 64.1H66.6V53.4H13.4V64.1ZM13.4 51.6H66.6V40.9H13.4V51.6ZM13.4 39.1H66.6V28.4H13.4V39.1ZM13.4 26.6H66.6V15.9H13.4V26.6ZM13.4 14.1H66.6V3.40004H13.4V14.1ZM62.5 70.9H47.5V69.1H62.5V70.9ZM30 70.9H27.5V69.1H30V70.9ZM25 70.9H22.5V69.1H25V70.9ZM20 70.9H17.5V69.1H20V70.9ZM62.5 58.4H47.5V56.6H62.5V58.4ZM30 58.4H27.5V56.6H30V58.4ZM25 58.4H22.5V56.6H25V58.4ZM20 58.4H17.5V56.6H20V58.4ZM62.5 45.9H47.5V44.1H62.5V45.9ZM30 45.9H27.5V44.1H30V45.9ZM25 45.9H22.5V44.1H25V45.9ZM20 45.9H17.5V44.1H20V45.9ZM62.5 33.4H47.5V31.6H62.5V33.4ZM30 33.4H27.5V31.6H30V33.4ZM25 33.4H22.5V31.6H25V33.4ZM20 33.4H17.5V31.6H20V33.4ZM62.5 20.9H47.5V19.1H62.5V20.9ZM30 20.9H27.5V19.1H30V20.9ZM25 20.9H22.5V19.1H25V20.9ZM20 20.9H17.5V19.1H20V20.9ZM62.5 8.40004H47.5V6.60004H62.5V8.40004ZM30 8.40004H27.5V6.60004H30V8.40004ZM25 8.40004H22.5V6.60004H25V8.40004ZM20 8.40004H17.5V6.60004H20V8.40004Z" fill="#0F62FE"/>
</svg>
