<svg width="80" height="80" viewBox="0 0 80 80" fill="none" xmlns="http://www.w3.org/2000/svg">
<rect width="80" height="80" fill="white" fill-opacity="0.01" style="mix-blend-mode:multiply"/>
<path d="M39.5475 75.7775L9.54748 58.2775C9.26998 58.115 9.09998 57.82 9.09998 57.5V22.5H10.9V56.9825L40.4525 74.2225L39.5475 75.7775ZM20.9 40H19.1V15H20.9V40ZM70.9 37.5H69.1V23.0175L40 6.04252L30.9 11.3325L30.88 32.5H29.08L29.1 10.8125C29.1 10.4925 29.27 10.195 29.5475 10.035L39.5475 4.22252C39.8275 4.06002 40.175 4.06002 40.4525 4.22252L70.4525 21.7225C70.73 21.8825 70.9 22.18 70.9 22.5V37.5ZM76.2725 55L65.6375 44.3625L64.3625 45.6375L73.7275 55L64.3625 64.3625L65.6375 65.6375L76.2725 55ZM53.1375 64.3625L43.7725 55L53.1375 45.6375L51.8625 44.3625L41.2275 55L51.8625 65.6375L53.1375 64.3625Z" fill="#0F62FE"/>
</svg>
