<svg width="80" height="80" viewBox="0 0 80 80" fill="none" xmlns="http://www.w3.org/2000/svg">
<rect width="80" height="80" fill="white" fill-opacity="0.01" style="mix-blend-mode:multiply"/>
<path d="M40 78.4C18.825 78.4 1.60001 61.175 1.60001 40C1.60001 27.4275 7.71751 15.715 18.005 8.51748C17.905 8.19748 17.85 7.85498 17.85 7.49998C17.85 5.62498 19.375 4.09998 21.25 4.09998C22.2375 4.09998 23.1275 4.52248 23.75 5.19748C28.8475 2.80998 34.31 1.59998 40 1.59998C52.5725 1.59998 64.285 7.71748 71.4825 18.005C71.805 17.905 72.145 17.85 72.5 17.85C74.375 17.85 75.9 19.375 75.9 21.25C75.9 22.2375 75.475 23.1275 74.8025 23.75C77.19 28.85 78.4 34.3125 78.4 40C78.4 52.5725 72.28 64.285 61.995 71.4825C62.095 71.805 62.15 72.1475 62.15 72.5C62.15 74.375 60.625 75.9 58.75 75.9C57.76 75.9 56.87 75.475 56.25 74.8025C51.15 77.19 45.6875 78.4 40 78.4ZM24.4325 73.1225C29.16 75.3525 34.435 76.6 40 76.6C44.665 76.6 49.17 75.7475 53.4325 74.0575C49.715 73.3825 45.33 70.8225 40.73 66.6C39.4725 67.3375 37.6475 67.1025 36.62 66.085L24.4325 73.1225ZM58.75 70.9C57.8675 70.9 57.15 71.6175 57.15 72.5C57.15 73.3825 57.8675 74.1 58.75 74.1C59.6325 74.1 60.35 73.3825 60.35 72.5C60.35 71.6175 59.6325 70.9 58.75 70.9ZM41.9875 65.3075C46.9925 69.895 51.7675 72.4375 55.34 72.4375C55.3425 72.4375 55.3475 72.4375 55.3525 72.4375C55.385 70.5925 56.8975 69.1 58.75 69.1C59.35 69.1 59.9175 69.2575 60.4075 69.5325C62.48 66.015 62.3725 59.7475 60.4225 52.345L42.3 62.81C42.3725 63.0825 42.41 63.3725 42.41 63.67C42.41 64.2625 42.2575 64.8225 41.9875 65.3075ZM8.77001 59.07C12.1225 64.54 16.8725 69.0675 22.5175 72.1475L35.72 64.525C35.6475 64.25 35.61 63.96 35.61 63.665C35.61 63.005 35.7975 62.39 36.125 61.8675C32.77 58.0575 29.525 53.54 26.6825 48.725L8.77001 59.07ZM62.0375 51.4075C63.93 58.405 64.2475 64.515 62.7775 68.6475C70.6825 62.3625 75.6275 53.1225 76.4725 43.075L62.0375 51.4075ZM39.01 62.0675C38.1275 62.0675 37.41 62.785 37.41 63.6675C37.41 64.55 38.1275 65.2675 39.01 65.2675C39.8925 65.2675 40.61 64.55 40.61 63.6675C40.61 62.785 39.8925 62.0675 39.01 62.0675ZM39.01 60.265C39.94 60.265 40.7825 60.64 41.3975 61.2475L59.9225 50.555C58.3525 45.255 55.895 39.465 52.6575 33.7325L28.2425 47.8275C31.0175 52.5275 34.18 56.935 37.4475 60.6475C37.915 60.405 38.4475 60.265 39.01 60.265ZM3.41251 39.0675C3.40251 39.3775 3.40001 39.6875 3.40001 40C3.40001 46.34 5.02001 52.3075 7.87001 57.5125L25.785 47.1675C23.0325 42.2925 20.745 37.2275 19.1225 32.4225C18.18 32.4475 17.2625 32.0725 16.6225 31.4425L3.41251 39.0675ZM54.2175 32.83C57.46 38.5675 59.925 44.315 61.53 49.625L76.59 40.9275C76.5975 40.6175 76.6 40.3075 76.6 39.9975C76.6 34.6 75.4575 29.4175 73.2025 24.575C72.1 24.81 70.875 24.425 70.105 23.655L54.2175 32.83ZM20.8425 31.8875C22.425 36.57 24.6575 41.51 27.3425 46.27L51.7575 32.1725C48.41 26.505 44.6225 21.48 40.82 17.4725L22.3 28.165C22.3725 28.44 22.41 28.73 22.41 29.025C22.41 30.225 21.785 31.2825 20.8425 31.8875ZM17.215 11.355C9.31501 17.64 4.37251 26.875 3.53001 36.9225L15.72 29.885C15.6475 29.61 15.61 29.3225 15.61 29.025C15.61 27.76 16.3025 26.655 17.33 26.07C15.9725 19.985 15.945 14.91 17.215 11.355ZM42.4275 16.545C46.225 20.5875 49.97 25.5975 53.315 31.2725L69.205 22.0975C69.1375 21.825 69.1 21.5425 69.1 21.25C69.1 20.38 69.43 19.585 69.97 18.9825C66.6725 14.2875 62.3875 10.5075 57.4975 7.84498L42.4275 16.545ZM19.01 27.425C18.1275 27.425 17.41 28.1425 17.41 29.025C17.41 29.9075 18.1275 30.625 19.01 30.625C19.8925 30.625 20.61 29.9075 20.61 29.025C20.61 28.1425 19.8925 27.425 19.01 27.425ZM19.075 25.625C19.9775 25.6425 20.7975 26.015 21.3975 26.6075L39.5225 16.145C34.095 10.7625 28.6525 7.52498 24.65 7.55998C24.6175 9.40748 23.105 10.9 21.25 10.9C20.65 10.9 20.085 10.745 19.595 10.47C17.7925 13.56 17.6025 18.98 19.075 25.625ZM72.5 19.65C71.6175 19.65 70.9 20.3675 70.9 21.25C70.9 22.1325 71.6175 22.85 72.5 22.85C73.3825 22.85 74.1 22.1325 74.1 21.25C74.1 20.3675 73.3825 19.65 72.5 19.65ZM26.56 5.94498C30.88 6.73498 36.0175 10.0675 41.1375 15.21L55.575 6.87498C46.6825 2.68998 35.82 2.27748 26.56 5.94498ZM21.25 5.89998C20.3675 5.89998 19.65 6.61748 19.65 7.49998C19.65 8.38248 20.3675 9.09998 21.25 9.09998C22.1325 9.09998 22.85 8.38248 22.85 7.49998C22.85 6.61748 22.1325 5.89998 21.25 5.89998Z" fill="#0F62FE"/>
</svg>
